<svg xmlns="http://www.w3.org/2000/svg" viewBox="1874.303 135.473 30.135 30.135">
  <defs>
    <style>
      .cls-1 {
        fill: none;
        stroke: #fff;
      }
    </style>
  </defs>
  <g id="Ticket" transform="translate(1119.061 -702.485) rotate(45)">
    <path id="Path_1" data-name="Path 1" class="cls-1" d="M1985.045,139.332h4.565s-.5,4.541,3.672,4.343,2.8-4.343,2.8-4.343h5.268v24.313h-5.268s1.543-4.072-2.8-4.409-3.672,4.409-3.672,4.409h-4.565Z" transform="translate(-845.326 -93)"/>
    <path id="Path_2" data-name="Path 2" class="cls-1" d="M1984.837,152.456h.859" transform="translate(-845.443 -98.718)"/>
    <path id="Path_3" data-name="Path 3" class="cls-1" d="M1984.829,152.356h.829" transform="translate(-829.119 -98.575)"/>
    <path id="Path_4" data-name="Path 4" class="cls-1" d="M1987.074,152.356h1.332" transform="translate(-846.766 -98.575)"/>
    <path id="Path_5" data-name="Path 5" class="cls-1" d="M1987.074,152.356h1.332" transform="translate(-845.05 -98.575)"/>
    <path id="Path_6" data-name="Path 6" class="cls-1" d="M1987.074,152.356h1.332" transform="translate(-843.334 -98.575)"/>
    <path id="Path_7" data-name="Path 7" class="cls-1" d="M1987.074,152.356h1.332" transform="translate(-841.619 -98.575)"/>
    <path id="Path_8" data-name="Path 8" class="cls-1" d="M1987.074,152.356h1.332" transform="translate(-839.903 -98.575)"/>
    <path id="Path_9" data-name="Path 9" class="cls-1" d="M1987.074,152.356h1.332" transform="translate(-838.187 -98.575)"/>
    <path id="Path_11" data-name="Path 11" class="cls-1" d="M1987.074,152.356h1.332" transform="translate(-836.472 -98.575)"/>
    <path id="Path_12" data-name="Path 12" class="cls-1" d="M1987.074,152.356h1.332" transform="translate(-834.756 -98.575)"/>
    <path id="Path_10" data-name="Path 10" class="cls-1" d="M1987.074,152.356h1.332" transform="translate(-833.04 -98.575)"/>
  </g>
</svg>
