<svg xmlns="http://www.w3.org/2000/svg" viewBox="1659.594 2935 27.5 24.011">
  <defs>
    <style>
      .cls-1 {
        fill: #fff;
      }
    </style>
  </defs>
  <g id="Twitter" transform="translate(837 61.359)">
    <path id="Path_14" data-name="Path 14" class="cls-1" d="M1684.1,2904.452l-2.907,1.965s-2.624-2.99-4.2-3.04a4.535,4.535,0,0,0-3.554,1.432c-1.223,1.027-1.338,3.687-.885,5.343s1.591,10.765,9.76-2.2" transform="translate(-835.394 -29.733)"/>
    <path id="Path_15" data-name="Path 15" class="cls-1" d="M1643.594,2923.415c3.413.813,8.194-2.3,8.194-2.3l-1.479-.652,2.5-1.83a21.143,21.143,0,0,1-2.965-.474,4.265,4.265,0,0,1-1.033-.8l2.671-.316a8.808,8.808,0,0,1-2.671-1.338,14.864,14.864,0,0,0-2.19-1.594s5.256-.05,5.519,0-3.6-1.442-4.005-2.9l-1.514-3.487-1.2-3.147,12.671,4.614,2.9,5.263" transform="translate(-821 -29.396)"/>
    <path id="Path_16" data-name="Path 16" class="cls-1" d="M1668.142,2914.31s.609,6.082-1.783,10.865c-3.1,6.21-10.489,11.148-22.633,3.846" transform="translate(-821.066 -35.008)"/>
    <path id="Path_17" data-name="Path 17" class="cls-1" d="M1689.423,2904.728l-2.019,2.993,3.32-.551-7.971,6.766" transform="translate(-840.629 -30.095)"/>
  </g>
</svg>
